<svg xmlns="http://www.w3.org/2000/svg" viewBox="0 0 128 128">
  <path fill="#F7DF1E" d="M1.5 1.5h125l-11.34 126L64 126.5 12.84 127.5z"/>
  <path fill="#FFF" d="M76.52 100.32c.97 2.06 1.86 3.82 3.96 3.82 2.02 0 3.3-.79 3.3-3.84 0-2.62-1.58-3.6-3.34-4.58l-1.18-.52c-3.4-1.54-5.66-3.46-5.66-7.52 0-3.73 2.83-6.57 7.26-6.57 3.16 0 5.43 1.1 7.07 4.05l-3.88 2.5c-.85-1.54-1.78-2.15-3.16-2.15-1.44 0-2.35.91-2.35 2.15 0 1.5.91 2.11 3.02 3.05l1.18.52c4 1.85 6.25 3.87 6.25 7.96 0 4.55-3.5 7.2-8.2 7.2-4.57 0-7.52-2.17-8.95-5.02zm-21.75.27c1.25 2.08 2.41 3.85 5.06 3.85 2.59 0 4.21-1 4.21-4.58V72.26h5.16v27.84c0 5.35-3.14 7.79-7.7 7.79-4.12 0-6.51-2.14-7.71-4.79z"/>
</svg>
